<svg xmlns="http://www.w3.org/2000/svg" xmlns:xlink="http://www.w3.org/1999/xlink" x="0" y="0" viewBox="0 0 128 128"><path fill="#fff" d="M117.5,51.2L95,79.1L72.5,51.2c-9.3-11.5-8.5-28.3,2-38.7l0,0c11.3-11.3,29.7-11.3,41,0l0,0 C126,23,126.9,39.7,117.5,51.2z"/><circle cx="59" cy="69" r="55" fill="#fff"/><path fill="#e4e4e7" d="M8.1,89.7c11.7,5.4,17.1,4.7,19.7,2.4c4.4-3.8-0.4-10.8,3.7-21.7C36.2,58,46.2,57,47.8,48.4 c1-5.5-1.4-13.7-16.5-26l-0.6-0.6C14.7,31.5,4,49,4,69C4,76.3,5.4,83.3,8.1,89.7z"/><path fill="#e4e4e7" d="M59,124c17.5,0,33.1-8.2,43.2-21l-14.5-3.3c-8.6-1.7-20.8-5.3-26.1-3.8c-14,4-14.9,19-21.5,24.8 C46,122.8,52.4,124,59,124z"/><path fill="#444b54" d="M59,127c-32,0-58-26-58-58c0-31,24.3-56.5,55.2-57.9c1.7-0.1,3.1,1.2,3.1,2.9c0.1,1.7-1.2,3.1-2.9,3.1 C28.7,18.4,7,41.2,7,69c0,28.7,23.3,52,52,52c17.7,0,34-8.9,43.6-23.7c0.9-1.4,2.8-1.8,4.2-0.9c1.4,0.9,1.8,2.8,0.9,4.1 C96.9,117.1,78.7,127,59,127z"/><path fill="#444b54" d="M112,86.7c-0.3,0-0.5,0-0.8-0.1c-1.6-0.4-2.5-2.1-2.1-3.7c0.4-1.5,0.8-3,1-4.5c0.3-1.6,1.9-2.7,3.5-2.4 c1.6,0.3,2.7,1.9,2.4,3.5c-0.3,1.7-0.7,3.3-1.1,5C114.5,85.9,113.3,86.7,112,86.7z"/><path fill="#75fa61" d="M117.5,51.2l-21,24.1c-0.8,0.9-2.2,0.9-3,0l-21-24.1c-9.3-11.5-8.5-28.3,2-38.7l0,0 c11.3-11.3,29.7-11.3,41,0l0,0C126,23,126.9,39.7,117.5,51.2z"/><path fill="#444b54" d="M95,78.6c-2.7,0-5.3-1.2-7-3.3L70.1,53.1C59.8,40.4,60.8,22,72.4,10.4c12.5-12.5,32.8-12.5,45.3,0 c11.6,11.6,12.6,30,2.2,42.8L102,75.2C100.3,77.3,97.7,78.6,95,78.6z M95,7c-6.7,0-13.3,2.5-18.4,7.6C67.2,24,66.4,39,74.8,49.4 l17.9,22.1c0.6,0.7,1.4,1.1,2.3,1.1s1.8-0.4,2.3-1.1l17.9-22.1l0,0c8.4-10.4,7.6-25.3-1.8-34.7C108.3,9.5,101.7,7,95,7z"/><g><circle cx="95" cy="33" r="13" fill="#fff"/></g></svg>