<svg xmlns="http://www.w3.org/2000/svg" xmlns:xlink="http://www.w3.org/1999/xlink" x="0" y="0" viewBox="0 0 128 128"><path fill="#fff" d="M78,124H14c-5.5,0-10-4.5-10-10V14C4,8.5,8.5,4,14,4h54c11,0,20,9,20,19v90C88,119.5,83.5,124,78,124z"/><path fill="#444b54" d="M90.9,94c0-1.7-1.3-3-3-3c0,0,0,0,0,0c-1.7,0-3,1.3-3,3l0,20c0,1.9-0.7,3.6-2,5c-1.3,1.3-3.1,2.1-5,2.1H14 c-3.9,0-7-3.1-7-7V14c0-3.9,3.1-7,7-7h51l0,7c0,7.2,5.8,13,13,13h10c1.7,0,3-1.3,3-3c0-6.2-2.4-11.9-6.7-16.3C79.9,3.4,74.1,1,68,1 H14C6.8,1,1,6.8,1,14v100c0,7.2,5.8,13,13,13h64c3.5,0,6.7-1.4,9.2-3.8s3.8-5.7,3.8-9.2L90.9,94z M84.7,21H78c-3.9,0-7-3.1-7-7 l0-6.7c3.4,0.6,6.5,2.2,9,4.7C82.5,14.5,84.1,17.6,84.7,21z"/><path fill="#71c2ff" d="M25,97c-0.6,0-1.2-0.2-1.7-0.5c-1.4-0.9-1.7-2.8-0.8-4.2l31-45c0.9-1.3,2.7-1.7,4-0.9l28.5,17.5l26.4-39.6 c0.9-1.4,2.8-1.8,4.2-0.8c1.4,0.9,1.8,2.8,0.8,4.2l-28,42c-0.9,1.3-2.7,1.7-4.1,0.9L56.9,53L27.5,95.7C26.9,96.5,26,97,25,97z"/><path fill="#fff" d="M17,94c0-4.4,3.6-8,8-8s8,3.6,8,8s-3.6,8-8,8S17,98.4,17,94"/><path fill="#71c2ff" d="M25,105c-6.1,0-11-4.9-11-11s4.9-11,11-11s11,4.9,11,11S31.1,105,25,105z M25,89c-2.8,0-5,2.2-5,5s2.2,5,5,5 s5-2.2,5-5S27.8,89,25,89z"/><circle cx="56" cy="49" r="8" fill="#fff"/><path fill="#71c2ff" d="M56,60c-6.1,0-11-4.9-11-11s4.9-11,11-11s11,4.9,11,11S62.1,60,56,60z M56,44c-2.8,0-5,2.2-5,5s2.2,5,5,5 s5-2.2,5-5S58.8,44,56,44z"/><circle cx="87" cy="68" r="8" fill="#fff"/><path fill="#71c2ff" d="M87,79c-6.1,0-11-4.9-11-11s4.9-11,11-11s11,4.9,11,11S93.1,79,87,79z M87,63c-2.8,0-5,2.2-5,5s2.2,5,5,5 s5-2.2,5-5S89.8,63,87,63z"/><circle cx="115" cy="26" r="8" fill="#fff"/><path fill="#71c2ff" d="M115,37c-6.1,0-11-4.9-11-11s4.9-11,11-11s11,4.9,11,11S121.1,37,115,37z M115,21c-2.8,0-5,2.2-5,5s2.2,5,5,5 s5-2.2,5-5S117.8,21,115,21z"/></svg>