<svg xmlns="http://www.w3.org/2000/svg" xmlns:xlink="http://www.w3.org/1999/xlink" x="0" y="0" viewBox="0 0 128 128"><path fill="#fff" d="M124,34h-12V19h6V9H10v10h6v15H4l6,9h6v81h30V81c0-9.9,8.1-18,18-18s18,8.1,18,18v43h30V43h6L124,34z"/><path fill="#3f4a54" d="M124,121.5l-9,0V107c1.7,0,3-1.3,3-3s-1.3-3-3-3V87c1.7,0,3-1.3,3-3s-1.3-3-3-3V46h3c1,0,1.9-0.5,2.5-1.3l6-9 c0.6-0.9,0.7-2.1,0.1-3.1S125.1,31,124,31h-9v-9h3c1.7,0,3-1.3,3-3V9c0-1.7-1.3-3-3-3H10C8.3,6,7,7.3,7,9v10c0,1.7,1.3,3,3,3h26v2 c0,1.7,1.3,3,3,3s3-1.3,3-3v-2h19v2c0,1.7,1.3,3,3,3s3-1.3,3-3v-2h19v2c0,1.7,1.3,3,3,3s3-1.3,3-3v-2h17v9H4 c-1.1,0-2.1,0.6-2.6,1.6s-0.5,2.2,0.1,3.1l6,9C8.1,45.5,9,46,10,46h3v35c-1.7,0-3,1.3-3,3s1.3,3,3,3v14c-1.7,0-3,1.3-3,3s1.3,3,3,3 v14l-9,0c0,0,0,0,0,0c-1.7,0-3,1.3-3,3c0,1.7,1.3,3,3,3l120,0.5c0,0,0,0,0,0c1.7,0,3-1.3,3-3C127,122.9,125.7,121.5,124,121.5z M13,12h102v4H13V12z M109,121.5l-24-0.1V107h24V121.5z M49,101V87c1.7,0,3-1.3,3-3s-1.3-3-3-3c0-8.3,6.7-15,15-15s15,6.7,15,15 c-1.7,0-3,1.3-3,3s1.3,3,3,3v14c-1.7,0-3,1.3-3,3s1.3,3,3,3v14.3l-30-0.1V107c1.7,0,3-1.3,3-3S50.7,101,49,101z M109,101H85V87h24 V101z M9.6,37h108.8l-2,3H11.6L9.6,37z M19,46h90v35H85c0-11.6-9.4-21-21-21s-21,9.4-21,21H19V46z M19,87h24v14H19V87z M19,107h24 v14.2l-24-0.1V107z"/></svg>