<svg xmlns="http://www.w3.org/2000/svg" xmlns:xlink="http://www.w3.org/1999/xlink" viewBox="0 0 128 128"><path fill="#fff" d="M99.8,83.9l-1.4-0.1L84.6,40.5c-3.5-11-14.5-17.7-25.8-16l0,0C47.4,26.3,39,36.1,39,47.6l0.1,45.5l-1.3,0.5c-5.1,2.2-8,4.4-7.8,6.2c0.7,4.4,18.9,5.1,40.8,1.7s39-9.7,38.3-14.1C108.8,85.6,105.3,84.4,99.8,83.9z"/><path fill="#fcca3d" d="M91.8,85.8c-1.3,0-2.5-0.8-2.9-2.1L76,43.2c-1-3.3-3.2-6.1-6.1-7.9c-1.4-0.9-1.9-2.7-1-4.1c0.9-1.4,2.7-1.9,4.1-1c4.1,2.5,7.2,6.5,8.7,11.2l12.9,40.6c0.5,1.6-0.4,3.3-1.9,3.8C92.4,85.8,92.1,85.8,91.8,85.8z"/><path fill="#ff6144" d="M69.6 85.6A40 8 0 1 0 69.6 101.6A40 8 0 1 0 69.6 85.6Z" transform="rotate(-8.899 69.56 93.654)"/><path fill="#444b54" d="M58.7,27.5c-1.5,0-2.7-1.1-3-2.5l-1.5-9.9c-0.3-1.6,0.9-3.2,2.5-3.4c1.6-0.3,3.2,0.9,3.4,2.5l1.5,9.9c0.3,1.6-0.9,3.2-2.5,3.4C59,27.5,58.9,27.5,58.7,27.5z"/><path fill="#444b54" d="M112.1,87.6c0-0.2,0-0.4,0-0.6c-0.1-0.3-0.1-0.6-0.2-0.9c0,0,0,0,0,0c-1.3-3.5-6.6-4.6-10.9-5.1c0,0,0,0,0,0c-0.1,0-0.2,0-0.3,0L87.4,39.5c-4-12.5-16.2-20-29.2-18c-12.9,2-22.3,13-22.3,26.1l0.1,43.5c-4.4,1.9-9.7,4.9-9,9.2c0.8,5,9.5,6.4,19,6.4c10.2,0,21.5-1.6,25.2-2.2C78.2,103.4,112.2,97.6,112.1,87.6z M70.3,98.6c-20.4,3.2-33.1,2.2-36.7,0.7c0.8-0.6,2.3-1.6,5.3-2.9l1.3-0.5l4.4-1.6c1.6-0.6,2.4-2.3,1.8-3.8c-0.6-1.6-2.3-2.4-3.8-1.8l-0.5,0.2L42,47.6c0-10.1,7.2-18.6,17.2-20.1c10-1.6,19.4,4.3,22.5,13.9l12.5,39.2c-10.5-0.1-22.5,1.6-26.4,2.2c-1.6,0.3-2.8,1.8-2.5,3.4c0.3,1.6,1.8,2.8,3.4,2.5c12.9-2,22.7-2.3,29.1-2c0.1,0,0.2,0,0.4,0.1l1.4,0.1c3.3,0.3,5,0.8,5.9,1.2C102.5,90.5,90.8,95.4,70.3,98.6z"/><path fill="#444b54" d="M56 85A3 3 0 1 0 56 91A3 3 0 1 0 56 85Z"/></svg>