<svg xmlns="http://www.w3.org/2000/svg" xmlns:xlink="http://www.w3.org/1999/xlink" viewBox="0 0 128 128"><path fill="#FFF" d="M60.7,14.6c-18.5,1.7-32.9,17.2-32.9,36.1v54.5c0,3.3,2.7,6.1,6.1,6.1h60.5c3.3,0,6.1-2.7,6.1-6.1V50.7c0-18.9-14.5-34.4-32.9-36.1"/><path fill="#C7D7E2" d="M67.4,14.6h-6.8c-1.4,0.1-2.8,0.3-4.1,0.6c16.4,3.5,30.8,18,30.8,35.5v54.5c0,3.3-2.7,6.1-6.1,6.1h13c3.3,0,6.1-2.7,6.1-6.1V50.7C100.3,31.8,85.9,16.3,67.4,14.6z"/><path fill="#98BED8" d="M64 33.2A15 15 0 1 0 64 63.2A15 15 0 1 0 64 33.2Z"/><path fill="#FFF" d="M56.5 51.2c-1.7 0-3-1.3-3-3 0-5.8 4.7-10.6 10.6-10.6 1.7 0 3 1.3 3 3s-1.3 3-3 3c-2.5 0-4.6 2-4.6 4.6C59.5 49.9 58.1 51.2 56.5 51.2zM9.6 89.2A5 5 0 1 0 9.6 99.2 5 5 0 1 0 9.6 89.2z"/><path fill="#454B54" d="M94.3,114H33.8c-5,0-9.1-4.1-9.1-9.1V50.5c0-16.1,9.6-30.4,24.6-36.4c4.4-1.8,9.4-2.7,14.6-2.7h0.2c5.3,0,10.2,0.9,14.6,2.7c14.9,6,24.6,20.3,24.6,36.4v54.5C103.3,109.9,99.3,114,94.3,114z M63.9,17.4c-4.5,0-8.7,0.8-12.4,2.3c-12.6,5.1-20.8,17.2-20.8,30.9v54.5c0,1.7,1.4,3.1,3.1,3.1h60.5c1.7,0,3-1.4,3-3.1V50.5c0-13.6-8.2-25.8-20.8-30.9c-3.7-1.5-7.9-2.3-12.4-2.3H63.9z"/><path fill="#C7D7E2" d="M94.3,104L94.3,104c-1.8,0-3.1-1.3-3.1-3s1.3-3,3-3s3,1.3,3,3S95.9,104,94.3,104z M85.2,104h-0.1c-1.7,0-3-1.3-3-3s1.3-3,3-3h0.1c1.7,0,3,1.3,3,3S86.8,104,85.2,104z M76.1,104L76.1,104c-1.8,0-3.1-1.3-3.1-3s1.3-3,3-3s3,1.3,3,3S77.7,104,76.1,104z M67,104h-0.1c-1.7,0-3-1.3-3-3s1.3-3,3-3H67c1.7,0,3,1.3,3,3S68.6,104,67,104z M57.9,104L57.9,104c-1.8,0-3.1-1.3-3.1-3s1.3-3,3-3s3,1.3,3,3S59.5,104,57.9,104z M48.8,104L48.8,104c-1.8,0-3.1-1.3-3.1-3s1.3-3,3-3s3,1.3,3,3S50.4,104,48.8,104z M39.7,104h-0.1c-1.7,0-3-1.3-3-3s1.3-3,3-3h0.1c1.7,0,3,1.3,3,3S41.3,104,39.7,104z"/><path fill="#454B54" d="M10 102.2c-4.4 0-8-3.6-8-8s3.6-8 8-8 8 3.6 8 8S14.4 102.2 10 102.2zM10 92.2c-1.1 0-2 .9-2 2s.9 2 2 2 2-.9 2-2S11.1 92.2 10 92.2zM24 124c-1.7 0-3-1.3-3-3 0-2.2-1.8-4-4-4s-4 1.8-4 4c0 1.7-1.3 3-3 3s-3-1.3-3-3c0-5.5 4.5-10 10-10s10 4.5 10 10C27 122.7 25.7 124 24 124z"/><path fill="#FFF" d="M27.8 64.1A5 5 0 1 0 27.8 74.1A5 5 0 1 0 27.8 64.1Z"/><path fill="#454B54" d="M27.8 77.1c-4.4 0-8-3.6-8-8s3.6-8 8-8 8 3.6 8 8S32.2 77.1 27.8 77.1zM27.8 67.1c-1.1 0-2 .9-2 2s.9 2 2 2 2-.9 2-2S28.9 67.1 27.8 67.1zM16 115.2c-1.2 0-2.3-.7-2.8-1.9l-5-13c-.6-1.5.2-3.3 1.7-3.9 1.6-.6 3.3.2 3.9 1.7l5 13c.6 1.5-.2 3.3-1.7 3.9C16.7 115.2 16.4 115.2 16 115.2z"/><path fill="#454B54" d="M13.2,92.5c-0.6,0-1.1-0.2-1.7-0.5c-1.4-0.9-1.8-2.8-0.8-4.2l10.8-16.2c0.9-1.4,2.8-1.8,4.2-0.8c1.4,0.9,1.8,2.8,0.8,4.2L15.8,91.2C15.2,92,14.2,92.5,13.2,92.5z"/><g><path fill="#454B54" d="M118 102.2c-4.4 0-8-3.6-8-8s3.6-8 8-8 8 3.6 8 8S122.4 102.2 118 102.2zM118 92.2c-1.1 0-2 .9-2 2s.9 2 2 2 2-.9 2-2S119.1 92.2 118 92.2zM118 124c-1.7 0-3-1.3-3-3 0-2.2-1.8-4-4-4s-4 1.8-4 4c0 1.7-1.3 3-3 3s-3-1.3-3-3c0-5.5 4.5-10 10-10s10 4.5 10 10C121 122.7 119.7 124 118 124z"/><path fill="#FFF" d="M100.2 64.1A5 5 0 1 0 100.2 74.1A5 5 0 1 0 100.2 64.1Z"/><path fill="#454B54" d="M100.2 77.1c-4.4 0-8-3.6-8-8s3.6-8 8-8 8 3.6 8 8S104.6 77.1 100.2 77.1zM100.2 67.1c-1.1 0-2 .9-2 2s.9 2 2 2 2-.9 2-2S101.3 67.1 100.2 67.1zM112 115.2c-.4 0-.7-.1-1.1-.2-1.5-.6-2.3-2.3-1.7-3.9l5-13c.6-1.5 2.3-2.3 3.9-1.7 1.5.6 2.3 2.3 1.7 3.9l-5 13C114.3 114.5 113.2 115.2 112 115.2z"/><path fill="#454B54" d="M114.8,92.5c-1,0-1.9-0.5-2.5-1.3l-10.8-16.2c-0.9-1.4-0.5-3.2,0.8-4.2c1.4-0.9,3.2-0.5,4.2,0.8l10.8,16.2c0.9,1.4,0.5,3.2-0.8,4.2C115.9,92.3,115.3,92.5,114.8,92.5z"/></g><g><path fill="#454B54" d="M89.5,122.1l-7.3-10.9H45.9L44,114h3.8c1.7,0,3,1.3,3,3s-1.3,3-3,3H40l-1.4,2.1c-0.5,0.8,0,1.9,1,1.9h48.9C89.4,124,90,122.9,89.5,122.1z"/></g><g><path fill="#454B54" d="M64,17.6C64,17.6,63.9,17.6,64,17.6c-1.7-0.1-3.1-1.4-3-3.1l0.2-5c0-1.7,1.5-3,3.1-2.9c1.7,0,3,1.4,2.9,3.1l-0.2,5C67,16.3,65.6,17.6,64,17.6z"/></g></svg>