<svg xmlns="http://www.w3.org/2000/svg" xmlns:xlink="http://www.w3.org/1999/xlink" width="512" height="512" viewBox="0 0 512 512"><path fill="#EF4754" d="M177.1,149.1c0-6.2,0.9-28.6-9.1-27.7c0,0-0.1,0-0.1,0c-0.8,1-1.6,2-2.3,3c-0.7,1-1.4,2.1-2,3.2c-0.2,0.5-0.5,0.9-0.7,1.4c-0.4,2.9-2.2,5.6-2.8,8.6c-0.5,3-0.9,6-1,9c-0.1,5.8,0.3,11.7,0,17.5c-0.2,5.5-1.9,30.1,9.3,24.5C181.5,182.1,177.1,160.8,177.1,149.1z"/><path fill="#FEBF10" d="M414,162c-0.5-26.3-10-51.7-22.9-74.4C385,76.8,378.1,67.2,368,59.7c-9.1-6.9-19.8-12.4-31.1-14.6c-6.4-1.2-11.9-1.2-18.9-0.4c-3.3,0.4-6.8,0.8-10,1.8c-1,0.3-2.1,0.7-3.1,1.3c0,0.6-0.1,1.1-0.3,1.6c0.3,0.6,0.7,1.2,1,1.8c9.4,18.6,11.4,40.9,6.3,61.1c0.1,0.4,0.1,0.8,0.1,1.2c-0.3,10.7,5.8,19.8,13.6,26.6c8.9,7.9,18.6,11.8,30,15c4.8,1.3,9.4,2.7,14.1,3.7c3.4,0.7,6.8,1.7,10.1,3.1c0.8,0.3,1.6,0.7,2.5,1.1c3.3-2.6,9-1.7,8.8,3.5c-0.9,16-1.3,32.3-2.4,48.5c6.6-5.8,13.1-12.1,17.6-19.5C412.5,185.3,414.3,173.8,414,162z"/><path fill="#FCBF95" d="M331.7 364.1c-2-4.7-3.7-9.5-5.3-14.4-.1-.2-.1-.5-.2-.7-4.4 2.7-8.9 5.1-13.7 7.3-26.9 12.1-55.5 14.6-84 7-10.3-2.8-20.7-6.3-30.8-10.6-.2.8-.5 1.6-.9 2.3.7 4.9 1.4 10 1.7 15.1.8 0 1.6.3 2.5.9 7.1 4.7 15.2 6.4 23.4 8 8.6 1.6 17.1 3.5 25.6 5.2 12.3 2.4 27.2 5.2 38.8 2.3 9.6-2.5 19.1-5.7 28.2-9.7 4-1.8 7.9-3.6 11.5-6.2 1.1-.8 1.9-1.3 2.7-2.3C330.6 366.6 330.9 365.2 331.7 364.1zM119.7 272.1c-1.9-6-3.6-12-5.1-18-5.7 2.2-7.1 8.4-5.2 14.4 2.1 6.6 7.1 12.6 14 13.8C122 278.9 120.8 275.5 119.7 272.1z"/><path fill="#D6E5E5" d="M352.3,390.4c-4.2-2.6-8-5.9-11.3-10c-0.9-1.2-1.8-2.5-2.7-3.7c-3.3,3.2-7.9,5.6-11.1,7.3c-10.3,5.2-21.4,9.2-32.5,12.3c-14.2,3.8-28.5,2.1-42.9-0.5c-10.4-1.9-20.7-4.1-31-6.2c-7.7-1.5-15.5-3.3-22.3-7.2c-0.5,5.9-2,11.6-4.9,16.8c0.4,0.8,0.5,1.8,0.4,2.9c-0.7,7.7,3.3,17.1,11.7,18.8c8.7,1.8,15.2-5,19.7-11.5c2.4-3.4,8.2-1.9,9.3,1.8c2.1,6.9,4.1,17.2,11.4,20.5c8.9,4,17.6-5.5,20.4-13.1c1.7-4.6,8.7-3.5,10.1,0.6c2.8,8.1,13.9,15.4,22.2,10.4c6-3.7,15.5-12.2,15.1-20.1c-0.2-4.3,4.1-7.1,7.9-5.4c11.5,5.2,24.2,3.4,30.4-6.7C350.6,395.5,350,392.7,352.3,390.4z"/><path fill="#FCBF95" d="M387.1 234.3c-.9 8.8-2.2 17.6-3.9 26.3 5.1-2.1 11.6-4 12.4-9.3C396.6 243.8 392.5 238.6 387.1 234.3zM375.4 172c-1.2-.5-2.4-.9-3.6-1.3-1.4-.4-2.8-.8-4.2-1.1-.1 0-1.4-.2-1.2-.2-.9 0-1.8-.2-2.7-.6-10.5-3-22.4-5.1-31.9-10.7-10.6-6.2-21.4-15.5-27-26.9-9.5 18.1-25.6 32.3-43.8 41.5-20.8 10.5-44.6 14.8-67.8 14.7-2.8 0-5.6-.1-8.5-.3-.7 1.5-1.5 2.9-2.5 4.3-4.7 6.3-15.8 12.5-23.5 7.8-5.6-3.4-8.4-9.4-9.7-15.7-9.9-.8-19.7-1-29.5.7-.8.8-1.9 1.3-3.4 1.3.3 16 2 31.9 5 47.6 3 15.6 6.6 31.8 13 46.4 10.4 24 29 42.8 51.9 55.2 25.1 13.6 54.9 24.5 83.8 22.1 25.2-2 51-13.5 69-31.3 38.9-38.4 38.4-97.4 40.7-148.9C377.4 176.2 375.8 174.2 375.4 172zM202.9 231c-9-7-22.6-8-30.2 1.5-4.4 5.5-12.7-1.7-8.3-7.3 11.5-14.4 32.2-13.1 45.8-2.5C215.8 227.1 208.5 235.4 202.9 231zM275.6 295.5c-12.9 11.2-30.7 11.9-43.7.6-5.4-4.6 1.9-12.9 7.3-8.3 9.6 8.3 21.1 6.5 30.3-1.4C274.9 281.7 280.9 290.9 275.6 295.5zM336.6 219.5c-3.7 2.1-7.5-.4-8.5-3.5-.4-.3-.7-.6-1.1-.9-1.1-.8-2.1-1.5-3.3-2.2-2-1.2-4.3-2.8-6.6-3.4-1.7-.4-3.6-.3-5.4.2-1.1.3-2.4.6-3.4 1.2-.1.1-.2.1-.3.2 1.3 6-8.2 9-10.7 2.7-4.6-11.9 14-17.6 22.6-14.8 5.4 1.7 10.7 4.9 15.1 8.4C338.5 210.2 342.2 216.3 336.6 219.5z"/><path fill="#FEBF10" d="M293 51c-.3-.5-.5-1-.7-1.5-14.6-7.4-28.8-14.7-45.3-16.7-15-1.8-30 1.8-44.1 6.8-13.8 4.9-27.6 10.4-40.3 17.8-24.5 14.3-45.6 33.2-64.7 54C80 130.6 69 158.9 70 185.5c1 24.4 20.2 42.3 40.9 52.5-3.7-18.7-5.8-37.7-5.9-56.7 0-2.4 1.3-4.1 2.9-5 .6-.7 1.5-1.3 2.7-1.6 12.4-3 24.7-3.4 37.2-2.5 0-1.8.1-3.6.2-5.4.5-7-.3-14.1.1-21.2.6-10.4 3-20 9.1-28.5 1.7-2.4 4.4-6.7 7.5-7.4 2-.4 3.8-.2 5.2.6 3.5.2 7 1.5 9.4 4.1 10.8 11.9 8.7 32.1 8.9 47.1.1 4.7.1 9.7-.6 14.6 22 .5 44.5-2.3 64.7-11.6 20.4-9.3 38.7-25.6 46.5-47.1C306.7 96 305.1 70.7 293 51zM450.8 302.8c-15.5-28.6-25.7-61.3-52.6-81.8-1.5 1.4-3.1 2.8-4.6 4.2.2.2.4.4.6.6.2.2.4.5.6.7 7.6 6.3 13.3 15 11.7 25.4-.9 5.6-3.7 10.9-8.8 13.9-3.9 2.2-8.3 3.3-12.1 5.7-1.8 1.1-3.6 1.1-5.1.4-1.4 5.5-3.1 11-5 16.4-8 22-22.3 41.2-40.9 55 .9.6 1.7 1.5 2.1 2.8 4.2 12.6 8.9 26.8 20.5 34.7 9.9 6.8 22.4 6.3 34.2 7.5 1.1-2.9 4.3-4.2 7-3.6 14.6-10.8 29-22.8 41.7-35.6 6.1-6.2 12.4-13 15.3-21.4C458.2 319.5 454.8 310.1 450.8 302.8zM185.1 350.3c-.1-1.1.2-2.2.8-3.2-10-5.1-19.4-11.2-27.9-18.2-12-10-22-22.1-29.3-35.7-.5.2-1 .2-1.6.3-13.5.3-25.6-9.8-28.5-23-1.5-7.2-.6-13.9 2.8-19-.1 0-.2 0-.3.1-4.4.7-8.9 10.2-10.8 13.8-3.2 6-5.9 12.2-9.1 18.2-10.6 19.8-16.8 43.7-17 66.2 0 1.7-.7 3.5-1.9 4.7-.8 2.8-1.6 5.9-1.1 8.6.6 3.3 4.1 7.1 6.3 9.3 8.4 8.6 18.5 14.7 29.1 20.2 9 4.6 18.3 8.8 27.7 12.4 8.1 3.1 17.1 6.6 25.9 6.8 1.6 0 2.9.7 3.9 1.6 3-.9 5.8-1.8 8.2-2.7 10.5-4.1 21.1-10.4 23.9-22.2C189.2 375.6 186.7 362.8 185.1 350.3z"/><path fill="#EF4823" d="M409.8,405c-11.5-6.7-24.9-5.7-37.6-7.6c-2.4-0.4-4.8-0.9-7.1-1.5c-3.1,9.1-9.2,17-18.7,20.3c-7.4,2.5-15.1,2.3-22.4,0.2c-3.3,10.3-13.1,20.1-21.9,23.8c-10.7,4.5-23,0.1-30.3-8.4c-6.3,8.1-16.6,14-26.5,11.1c-9.6-2.8-14.5-10.5-17.8-19.1c-7.2,6.6-16.7,10.7-26.5,6.9c-9.4-3.6-15.1-11.1-17.1-20.1c-4.9,4.1-10.5,7.2-16.7,9.5c-10.3,4-21.6,6.1-31.4,11.3c-3.8,2-9.8,5.2-9.2,10.4c0.4,4.1,3.1,7.9,5.8,10.7c8.7,9,20,15.3,31.4,20.2c27.1,11.6,56.5,14.3,85.6,16c30,1.8,60.9,1.1,90.1-6.8c18.6-5,34.6-12.5,50-23.9c7.2-5.3,14.1-11,19.9-17.7c4.6-5.3,9.3-11.7,10.1-18.9C420.2,414.7,415.5,408.3,409.8,405z"/><path d="M463.8,304.9c-3.1-8.1-7.7-15.6-11.3-23.5c-4-8.7-8.1-17.3-12.7-25.7c-8.6-15.9-19.3-31.3-33.7-42.4c3.1-3.3,5.9-6.7,8.5-10.5c7.5-11.1,9.8-23.2,10.4-36.5c1.3-28.7-9.6-57.1-23.1-81.8c-6.4-11.8-13.8-22.3-24.1-31c-10-8.4-21.8-14.5-34.3-18.1c-7.7-2.2-15.4-2.5-23.3-1.9c-7.2,0.5-16.3,1.3-22.2,5.8c-0.2,0.1-0.3,0.3-0.5,0.4c-12.8-6.4-25.4-13.2-39.5-16.3c-14.4-3.2-28.7-2.3-43,1.1c-14.5,3.4-28.4,9.5-42.1,15.3C160,45,147.9,53,136.8,61.1C125.5,69.2,115,78.5,105,88.2c-9.9,9.6-19.5,19.4-27.1,31c-7.3,11.1-12.2,23.7-15.3,36.6c-3,12.4-5,26.5-2.6,39.2c3.8,20.2,18.4,36.1,35.5,47c-5,2.5-8.5,7.5-11.6,12.2c-4.6,7-8,14.8-11.7,22.3c-10.8,22-18.2,45.6-19,70.2c-0.5,0.7-0.8,1.4-1,2.2c-1.1,4.6-2.4,9.2-2.2,13.9c0.2,4.3,2.7,8.2,5.1,11.5c7.8,10.7,19.2,18.3,30.6,24.6c10.4,5.8,21.2,10.7,32.2,15c5.3,2.1,10.9,4.2,16.5,5.8c-12,5.2-21.7,12.9-18.4,26.3c2.4,9.8,10.8,17.5,18.7,23.2c11.2,8.1,24.1,14,37.1,18.4c27.4,9.3,57.1,11.2,85.8,12.5c29.9,1.3,60-0.6,88.9-8.7c18-5,34-13.3,49.1-24.2c13.4-9.7,28.5-22.4,33.5-38.9c5.3-17.2-6.8-30.7-21.8-36.6c14.8-11.2,29.2-23.5,42.2-36.5c6.5-6.5,12.4-14,15.8-22.7C468.9,323.3,467.3,313.9,463.8,304.9z M305,47.7c0.9-0.6,2-0.9,3.1-1.3c3.2-1.1,6.6-1.5,10-1.8c7-0.8,12.5-0.8,18.9,0.4c11.3,2.2,22,7.7,31.1,14.6c10,7.6,16.9,17.1,23.1,27.9c12.9,22.6,22.4,48.1,22.9,74.4c0.2,11.8-1.6,23.3-7.8,33.5c-4.5,7.4-11,13.7-17.6,19.5c1.1-16.2,1.5-32.5,2.4-48.5c0.3-5.2-5.5-6-8.8-3.5c-0.9-0.4-1.7-0.8-2.5-1.1c-3.2-1.3-6.7-2.3-10.1-3.1c-4.7-1-9.4-2.4-14.1-3.7c-11.4-3.2-21-7.1-30-15c-7.7-6.8-13.9-15.9-13.6-26.6c0-0.4,0-0.8-0.1-1.2c5.1-20.3,3.1-42.5-6.3-61.1c-0.3-0.6-0.6-1.2-1-1.8C304.9,48.8,304.9,48.3,305,47.7z M395.5,251.3c-0.8,5.3-7.3,7.2-12.4,9.3c1.7-8.7,3-17.5,3.9-26.3C392.5,238.6,396.6,243.8,395.5,251.3z M352.4,397.3c-6.2,10.1-18.9,11.9-30.4,6.7c-3.8-1.7-8.2,1.1-7.9,5.4c0.5,7.9-9,16.4-15.1,20.1c-8.3,5.1-19.5-2.3-22.2-10.4c-1.4-4.2-8.4-5.3-10.1-0.6c-2.8,7.7-11.5,17.1-20.4,13.1c-7.4-3.3-9.4-13.6-11.4-20.5c-1.1-3.7-7-5.2-9.3-1.8c-4.5,6.5-11.1,13.3-19.7,11.5c-8.4-1.7-12.5-11.1-11.7-18.8c0.1-1.1-0.1-2-0.4-2.9c3-5.2,4.4-10.9,4.9-16.8c6.8,3.9,14.6,5.7,22.3,7.2c10.3,2.1,20.7,4.2,31,6.2c14.3,2.7,28.7,4.4,42.9,0.5c11.2-3,22.2-7,32.5-12.3c3.2-1.6,7.8-4.1,11.1-7.3c0.8,1.3,1.7,2.5,2.7,3.7c3.3,4.2,7.1,7.5,11.3,10C350,392.7,350.6,395.5,352.4,397.3z M331.2,368.2c-0.8,1-1.6,1.5-2.7,2.3c-3.5,2.5-7.5,4.4-11.5,6.2c-9.1,4-18.6,7.3-28.2,9.7c-11.6,3-26.4,0.1-38.8-2.3c-8.6-1.6-17.1-3.5-25.6-5.2c-8.2-1.6-16.4-3.3-23.4-8c-0.9-0.6-1.7-0.8-2.5-0.9c-0.3-5.1-1-10.2-1.7-15.1c0.4-0.7,0.8-1.5,0.9-2.3c10.1,4.3,20.5,7.8,30.8,10.6c28.6,7.7,57.2,5.1,84-7c4.7-2.1,9.3-4.6,13.7-7.3c0,0.2,0.1,0.5,0.2,0.7c1.6,4.8,3.3,9.7,5.3,14.4C330.9,365.2,330.6,366.6,331.2,368.2z M269.8,356.7c-29,2.3-58.7-8.5-83.8-22.1c-22.8-12.4-41.5-31.2-51.9-55.2c-6.3-14.6-10-30.8-13-46.4c-3-15.7-4.7-31.6-5-47.6c1.5,0,2.6-0.5,3.4-1.3c9.8-1.7,19.7-1.5,29.5-0.7c1.3,6.3,4.1,12.3,9.7,15.7c7.7,4.7,18.8-1.5,23.5-7.8c1-1.3,1.8-2.8,2.5-4.3c2.8,0.2,5.6,0.3,8.5,0.3c23.2,0.2,47-4.2,67.8-14.7c18.2-9.2,34.3-23.4,43.8-41.5c5.5,11.4,16.4,20.7,27,26.9c9.5,5.6,21.4,7.7,31.9,10.7c0.9,0.4,1.7,0.6,2.7,0.6c-0.2,0,1.1,0.2,1.2,0.2c1.4,0.3,2.8,0.7,4.2,1.1c1.2,0.4,2.4,0.8,3.6,1.3c0.4,2.2,2,4.2,4.2,4.5c-2.3,51.5-1.9,110.5-40.7,148.9C320.9,343.2,295,354.6,269.8,356.7z M123.4,282.2c-6.9-1.2-11.9-7.1-14-13.8c-1.9-6-0.5-12.3,5.2-14.4c1.5,6.1,3.2,12.1,5.1,18C120.8,275.5,122,278.9,123.4,282.2z M159.2,146.6c0.1-3,0.5-6.1,1-9c0.5-2.9,2.3-5.7,2.8-8.6c0.2-0.5,0.5-0.9,0.7-1.4c0.6-1.1,1.3-2.2,2-3.2c0.7-1,1.5-2,2.3-3c0,0,0.1,0,0.1,0c10-0.9,9.1,21.5,9.1,27.7c0,11.8,4.4,33-8.6,39.5c-11.2,5.6-9.5-19-9.3-24.5C159.5,158.3,159.1,152.4,159.2,146.6z M70,185.5c-1.1-26.5,9.9-54.8,27.8-74.2c19.2-20.7,40.3-39.7,64.7-54c12.7-7.4,26.5-12.9,40.3-17.8c14.1-5,29.1-8.6,44.1-6.8c16.5,2,30.7,9.3,45.3,16.7c0.1,0.5,0.4,1,0.7,1.5c12.1,19.7,13.7,45,5.9,66.6c-7.8,21.5-26.1,37.8-46.5,47.1c-20.2,9.2-42.7,12.1-64.7,11.6c0.7-4.9,0.7-9.9,0.6-14.6c-0.2-15,1.9-35.2-8.9-47.1c-2.4-2.6-5.9-3.9-9.4-4.1c-1.4-0.8-3.2-1.1-5.2-0.6c-3.2,0.7-5.8,4.9-7.5,7.4c-6,8.6-8.5,18.1-9.1,28.5c-0.4,7,0.3,14.1-0.1,21.2c-0.1,1.8-0.2,3.6-0.2,5.4c-12.6-1-24.9-0.5-37.2,2.5c-1.2,0.3-2.1,0.9-2.7,1.6c-1.7,0.9-3,2.6-2.9,5c0.1,19,2.1,38,5.9,56.7C90.3,227.8,71,209.8,70,185.5z M124.3,404.6c-9.5-3.6-18.7-7.8-27.7-12.4c-10.6-5.4-20.7-11.6-29.1-20.2c-2.2-2.2-5.7-6-6.3-9.3c-0.5-2.7,0.3-5.8,1.1-8.6c1.2-1.2,1.9-3,1.9-4.7c0.2-22.4,6.4-46.4,17-66.2c3.2-6,5.9-12.2,9.1-18.2c2-3.6,6.4-13.1,10.8-13.8c0.1,0,0.2,0,0.3-0.1c-3.4,5.1-4.3,11.9-2.8,19c2.8,13.2,15,23.3,28.5,23c0.6,0,1.1-0.1,1.6-0.3c7.4,13.6,17.4,25.7,29.3,35.7c8.5,7.1,17.9,13.1,27.9,18.2c-0.6,1-0.9,2.1-0.8,3.2c1.6,12.5,4.1,25.3,1,37.8c-2.9,11.7-13.4,18.1-23.9,22.2c-2.3,0.9-5.1,1.8-8.2,2.7c-0.9-0.9-2.2-1.5-3.9-1.6C141.3,411.2,132.4,407.7,124.3,404.6z M409.8,405c5.7,3.4,10.4,9.7,9.6,16.6c-0.8,7.2-5.5,13.6-10.1,18.9c-5.8,6.7-12.7,12.5-19.9,17.7c-15.5,11.3-31.5,18.9-50,23.9c-29.2,7.8-60.1,8.6-90.1,6.8c-29.1-1.8-58.6-4.4-85.6-16c-11.4-4.9-22.7-11.2-31.4-20.2c-2.8-2.9-5.4-6.7-5.8-10.7c-0.5-5.2,5.4-8.4,9.2-10.4c9.8-5.2,21.1-7.3,31.4-11.3c6.2-2.4,11.8-5.5,16.7-9.5c2,8.9,7.7,16.5,17.1,20.1c9.8,3.8,19.3-0.2,26.5-6.9c3.3,8.6,8.2,16.3,17.8,19.1c10,2.9,20.2-3,26.5-11.1c7.4,8.5,19.7,12.8,30.3,8.4c8.9-3.7,18.7-13.6,21.9-23.8c7.3,2.1,15,2.3,22.4-0.2c9.4-3.2,15.5-11.2,18.7-20.3c2.3,0.6,4.7,1.1,7.1,1.5C384.9,399.3,398.3,398.2,409.8,405z M455.4,327.7c-2.8,8.4-9.1,15.3-15.3,21.4c-12.7,12.8-27.1,24.8-41.7,35.6c-2.6-0.6-5.9,0.6-7,3.6c-11.8-1.2-24.3-0.7-34.2-7.5c-11.5-7.9-16.2-22.1-20.5-34.7c-0.4-1.3-1.2-2.2-2.1-2.8c18.5-13.9,32.9-33,40.9-55c2-5.4,3.6-10.9,5-16.4c1.5,0.7,3.3,0.7,5.1-0.4c3.8-2.3,8.2-3.5,12.1-5.7c5.1-2.9,7.9-8.2,8.8-13.9c1.6-10.5-4.1-19.1-11.7-25.4c-0.2-0.2-0.4-0.5-0.6-0.7c-0.2-0.2-0.4-0.4-0.6-0.6c1.6-1.4,3.1-2.8,4.6-4.2c26.9,20.5,37.1,53.2,52.6,81.8C454.8,310.1,458.2,319.5,455.4,327.7z"/><path d="M210.2 222.8c-13.5-10.6-34.3-11.8-45.8 2.5-4.4 5.5 3.8 12.8 8.3 7.3 7.6-9.5 21.2-8.5 30.2-1.5C208.5 235.4 215.8 227.1 210.2 222.8zM335 207.3c-4.3-3.6-9.7-6.7-15.1-8.4-8.6-2.7-27.2 3-22.6 14.8 2.4 6.3 12 3.3 10.7-2.7.1-.1.2-.1.3-.2 1-.6 2.3-.9 3.4-1.2 1.8-.5 3.7-.7 5.4-.2 2.3.6 4.6 2.2 6.6 3.4 1.1.7 2.2 1.4 3.3 2.2.4.3.8.6 1.1.9 1 3.1 4.7 5.6 8.5 3.5C342.2 216.3 338.5 210.2 335 207.3zM269.5 286.3c-9.2 7.9-20.7 9.8-30.3 1.4-5.4-4.7-12.6 3.6-7.3 8.3 13.1 11.3 30.8 10.6 43.7-.6C280.9 290.9 274.9 281.7 269.5 286.3z"/></svg>